<svg width="387" height="88" viewBox="0 0 387 88" fill="none" xmlns="http://www.w3.org/2000/svg">
<path d="M19.2957 27.6567C19.9368 28.429 20.8266 28.9533 21.812 29.1393C22.7974 29.3252 23.8167 29.1612 24.6944 28.6755C25.1794 28.419 25.6076 28.0668 25.9531 27.6401C26.2987 27.2134 26.5544 26.7211 26.7049 26.1928C26.8554 25.6645 26.8976 25.1111 26.8289 24.566C26.7602 24.0209 26.5821 23.4954 26.3053 23.0211C26.0321 22.538 25.6663 22.1137 25.229 21.7725C24.7917 21.4313 24.2915 21.1799 23.757 21.0328C23.2225 20.8857 22.6643 20.8457 22.1143 20.9151C21.5644 20.9846 21.0335 21.1621 20.5522 21.4375C20.0672 21.6941 19.639 22.0463 19.2935 22.473C18.948 22.8996 18.6923 23.392 18.5418 23.9203C18.3912 24.4486 18.3491 25.002 18.4177 25.547C18.4864 26.0921 18.6645 26.6176 18.9413 27.0919C18.9405 27.2101 18.9735 27.326 19.0363 27.4261C19.0991 27.5261 19.1891 27.6061 19.2957 27.6567ZM25.0488 58.8745C24.071 58.3448 22.9267 58.2138 21.8548 58.5089C20.7828 58.804 19.866 59.5023 19.2957 60.4581C18.7634 61.4224 18.634 62.5587 18.9359 63.6184C19.2378 64.678 19.9464 65.5748 20.9066 66.1125C21.8861 66.6341 23.0277 66.7607 24.0974 66.4662C25.1671 66.1718 26.0838 65.4787 26.6597 64.5289C26.7747 64.2984 26.8898 64.19 26.8898 63.9641C27.254 63.0359 27.2671 62.0065 26.9269 61.0692C26.5866 60.132 25.9163 59.3515 25.0419 58.8745H25.0488ZM69.2808 24.8283L33.7728 4.69566C15.2755 -5.82477 0.110352 2.77091 0.110352 23.8095V64.19C0.110352 85.2286 15.2755 93.8243 33.7728 83.3062L69.2739 63.0652C87.7689 52.6531 87.7689 35.3464 69.2739 24.8283H69.2808ZM8.62031 49.7233C8.609 49.6357 8.56845 49.5544 8.50525 49.4928C8.50525 49.3798 8.50525 49.3798 8.39019 49.2623V49.1493C8.39019 49.0364 8.39019 49.0364 8.27513 48.9188V48.6883C7.7023 45.356 7.81506 41.9415 8.60648 38.6544C9.39791 35.3672 10.8513 32.2767 12.8776 29.5722C11.7768 27.1632 11.6254 24.4266 12.4537 21.9106C13.282 19.3945 15.0289 17.2849 17.3443 16.0044C19.8251 14.6395 22.7407 14.3013 25.4673 15.0621C28.1939 15.8228 30.515 17.6222 31.9341 20.0752C32.6174 21.2877 33.0524 22.6244 33.2138 24.0073C33.3752 25.3902 33.2597 26.7914 32.874 28.129C32.4883 29.4666 31.8402 30.7138 30.9675 31.7975C30.0949 32.8812 29.0153 33.7797 27.7919 34.4405C26.1723 35.331 24.3546 35.7978 22.5071 35.7978C20.6596 35.7978 18.8419 35.331 17.2223 34.4405C14.7053 38.4014 13.7626 43.1638 14.5805 47.787V48.248C14.5992 48.5546 14.5601 48.8619 14.4654 49.1539C14.4654 49.2669 14.3504 49.3844 14.3504 49.615C14.2353 49.7279 14.2353 49.8455 14.1203 49.9538V50.0667C14.0052 50.1797 14.0052 50.2973 13.8901 50.4056L13.5449 50.7444L13.4368 50.8482C13.3217 50.9611 13.2067 51.0787 13.0916 51.0787C12.3041 51.4191 11.4216 51.4685 10.6011 51.2182C9.78064 50.9679 9.07547 50.4341 8.61111 49.7118L8.62031 49.7233ZM51.5889 61.3732C51.5776 61.4608 51.5371 61.5421 51.4739 61.6037L51.3588 61.7167V61.8296C51.3588 61.9426 51.2438 61.9426 51.1287 62.0601L50.8986 62.2906C45.6187 66.7393 38.8254 68.9695 31.941 68.5144C30.4099 70.7179 28.1165 72.2734 25.5055 72.8794C22.8944 73.4855 20.1518 73.0989 17.8091 71.7945C16.5857 71.1337 15.5061 70.2352 14.6335 69.1515C13.7609 68.0677 13.1128 66.8206 12.7271 65.483C12.3414 64.1454 12.2258 62.7442 12.3872 61.3613C12.5486 59.9784 12.9836 58.6417 13.6669 57.4292C15.086 54.9762 17.4072 53.1768 20.1338 52.416C22.8604 51.6553 25.7759 51.9935 28.2567 53.3584C29.8746 54.2073 31.2385 55.4714 32.2089 57.0213C33.1792 58.5712 33.7213 60.3514 33.7797 62.18C38.534 62.1981 43.1381 60.5132 46.7609 57.4292C46.876 57.3163 46.9911 57.1987 47.1061 57.1987C47.3363 57.0857 47.6814 56.9682 47.9093 56.8598C48.0243 56.8598 48.2544 56.7469 48.3695 56.7469H49.4028C49.5178 56.7469 49.6329 56.8598 49.863 56.8598H49.9781C50.0931 56.8598 50.2082 56.9728 50.4383 57.0904C51.126 57.5315 51.6244 58.2142 51.8355 59.0044C52.0467 59.7946 51.9555 60.6354 51.5797 61.3617L51.5889 61.3732ZM55.8393 54.0223C53.5249 54.0974 51.251 53.4018 49.3734 52.0443C47.4959 50.6868 46.1206 48.744 45.463 46.52C44.8053 44.2961 44.9024 41.9165 45.7389 39.7537C46.5755 37.5908 48.1044 35.7669 50.0862 34.5673C47.7623 30.4526 43.9956 27.3491 39.5167 25.8587C39.4016 25.7457 39.1715 25.7457 39.0564 25.6282C38.7998 25.475 38.5672 25.2847 38.3661 25.0634C38.251 24.9505 38.1359 24.8329 38.1359 24.7246C38.0209 24.6116 38.0209 24.4941 37.9058 24.3857V24.2728C37.8623 24.2287 37.8294 24.1753 37.8094 24.1166C37.7895 24.0579 37.7831 23.9955 37.7907 23.9339C37.7907 23.821 37.6757 23.7034 37.6757 23.4729V22.9059C37.6689 22.483 37.748 22.0631 37.9083 21.6718C38.0685 21.2805 38.3066 20.9259 38.6079 20.6297C38.9093 20.3334 39.2677 20.1017 39.6613 19.9485C40.0548 19.7953 40.4754 19.7239 40.8974 19.7387H41.5878C41.7028 19.7387 41.8179 19.7387 41.8179 19.8516C41.933 19.8516 42.048 19.8516 42.048 19.9646C45.2406 21.0745 48.1829 22.8048 50.7063 25.0564C53.2298 27.3079 55.2846 30.0363 56.7529 33.0851C59.3923 33.2903 61.8624 34.467 63.687 36.3883C65.5117 38.3096 66.5616 40.8396 66.6344 43.4903C66.553 46.307 65.3792 48.9811 63.3621 50.9452C61.345 52.9093 58.6432 54.0089 55.8301 54.0108L55.8393 54.0223ZM55.7243 39.4311H55.0339C54.264 39.5716 53.5503 39.9301 52.9773 40.464C52.4043 40.9979 51.9958 41.685 51.8003 42.444C51.6047 43.2031 51.6302 44.0024 51.8738 44.7474C52.1173 45.4924 52.5686 46.1519 53.1745 46.6481C53.7804 47.1443 54.5154 47.4564 55.2927 47.5475C56.07 47.6385 56.8571 47.5048 57.5609 47.162C58.2648 46.8192 58.8559 46.2817 59.2644 45.6131C59.673 44.9445 59.8819 44.1727 59.8665 43.3889C59.8632 42.8525 59.7522 42.3222 59.54 41.8297C59.3278 41.3371 59.0188 40.8924 58.6314 40.522C58.2441 40.1516 57.7862 39.8631 57.2852 39.6737C56.7841 39.4843 56.2501 39.3979 55.715 39.4195L55.7243 39.4311Z" fill="url(#paint0_linear)"/>
<path d="M108.002 59.0996C105.31 57.6906 103.047 55.5803 101.453 52.9911C99.8651 50.329 99.0669 47.2693 99.1513 44.1695C99.1226 41.0765 99.9169 38.0316 101.453 35.348C103.011 32.7965 105.24 30.7232 107.896 29.3547C110.808 27.8627 114.047 27.1241 117.317 27.2064C120.352 27.1404 123.354 27.8403 126.048 29.2418C128.482 30.5227 130.452 32.539 131.677 35.0045L125.588 38.5105C124.72 37.0136 123.442 35.7969 121.906 35.0045C120.419 34.2184 118.754 33.8286 117.073 33.8727C115.699 33.8066 114.327 34.0319 113.045 34.5336C111.764 35.0354 110.603 35.8024 109.638 36.7846C108.673 37.7667 107.925 38.9418 107.445 40.2331C106.964 41.5243 106.761 42.9026 106.849 44.2779C106.844 46.0546 107.294 47.8028 108.157 49.355C109.02 50.9072 110.267 52.2113 111.778 53.1423C113.288 54.0734 115.013 54.6002 116.785 54.6722C118.557 54.7442 120.318 54.359 121.899 53.5536C123.412 52.7287 124.682 51.5196 125.581 50.0475L131.67 53.5536C130.398 56.0274 128.387 58.0419 125.917 59.3163C123.223 60.7177 120.221 61.4177 117.186 61.3517C113.993 61.3167 110.85 60.5461 108.002 59.0996Z" fill="#0A4348"/>
<path d="M164.527 30.9362C165.882 32.385 166.927 34.0951 167.6 35.9622C168.272 37.8293 168.558 39.8141 168.439 41.7955V60.7963H160.396V42.8166C160.579 40.4439 159.837 38.0925 158.325 36.2563C157.545 35.4758 156.608 34.8705 155.577 34.4807C154.545 34.0908 153.442 33.9253 152.342 33.9951C151.076 33.9422 149.812 34.1454 148.626 34.5925C147.44 35.0396 146.356 35.7215 145.438 36.5975C144.533 37.605 143.842 38.7865 143.407 40.07C142.971 41.3535 142.801 42.7123 142.907 44.0637V60.7963H135.115V14.6484H143.043V31.388C144.4 29.9878 146.051 28.9062 147.875 28.2208C149.942 27.4763 152.122 27.0934 154.319 27.089C158.087 27.0198 161.739 28.3961 164.527 30.9362Z" fill="#0A4348"/>
<path d="M207.839 27.6562V60.9095H200.371V56.7257C199.055 58.2023 197.452 59.3952 195.661 60.2318C193.736 61.0564 191.664 61.4799 189.571 61.4765C185.659 61.682 181.823 60.342 178.887 57.7446C177.501 56.2944 176.436 54.5675 175.762 52.6767C175.087 50.786 174.819 48.774 174.975 46.7724V27.6562H182.902V45.5276C182.719 47.9386 183.46 50.3291 184.974 52.2124C185.736 52.9816 186.652 53.5807 187.662 53.9704C188.671 54.3602 189.752 54.5316 190.833 54.4737C192.08 54.5251 193.325 54.3208 194.49 53.8733C195.656 53.4258 196.718 52.7445 197.612 51.8712C199.394 49.8074 200.302 47.1289 200.143 44.405V27.6562H207.839Z" fill="#0A4348"/>
<path d="M244.49 30.936C245.845 32.3848 246.89 34.095 247.563 35.9621C248.236 37.8291 248.521 39.814 248.403 41.7953V60.7985H240.475V42.8188C240.658 40.446 239.915 38.0946 238.404 36.2585C237.624 35.478 236.687 34.8727 235.655 34.4828C234.623 34.0929 233.521 33.9274 232.42 33.9972C231.154 33.9443 229.89 34.1475 228.704 34.5946C227.518 35.0417 226.434 35.7236 225.517 36.5996C224.611 37.6071 223.92 38.7885 223.485 40.0721C223.05 41.3556 222.88 42.7144 222.985 44.0658V60.8054H215.078V27.6651H222.546V31.8512C223.864 30.2755 225.566 29.0677 227.487 28.3451C229.619 27.5467 231.884 27.1626 234.16 27.2133C236.042 27.1213 237.923 27.4029 239.696 28.0417C241.469 28.6806 243.098 29.6642 244.49 30.936Z" fill="#0A4348"/>
<path d="M288.95 27.6558V55.8194C288.95 67.4693 282.861 73.3519 270.798 73.3519C267.693 73.3507 264.601 72.9321 261.607 72.1071C258.996 71.4051 256.542 70.2156 254.372 68.6011L257.934 62.7185C259.616 64.0347 261.523 65.0316 263.563 65.6598C265.796 66.3757 268.122 66.7571 270.467 66.7916C273.406 67.0575 276.333 66.1644 278.625 64.3021C279.557 63.2854 280.272 62.0887 280.726 60.7855C281.18 59.4823 281.364 58.0999 281.267 56.723V55.0264C279.914 56.5107 278.217 57.6375 276.326 58.3066C274.273 59.1052 272.084 59.4899 269.882 59.4384C266.85 59.4774 263.854 58.779 261.151 57.403C258.642 56.1152 256.535 54.1596 255.062 51.7509C253.529 49.2314 252.732 46.3317 252.761 43.3811C252.716 40.4285 253.515 37.5247 255.062 35.0113C256.565 32.6269 258.664 30.6776 261.151 29.3569C263.853 27.9797 266.849 27.2797 269.88 27.3169C272.156 27.2662 274.421 27.6504 276.554 28.4487C278.502 29.2389 280.237 30.4789 281.616 32.0677V27.6558H288.95ZM278.381 50.052C279.331 49.18 280.08 48.1111 280.576 46.9197C281.072 45.7282 281.303 44.4428 281.253 43.1529C281.314 41.8783 281.088 40.6062 280.59 39.4313C280.093 38.2564 279.338 37.2089 278.381 36.3667C276.337 34.6088 273.71 33.6805 271.017 33.7643C268.293 33.6835 265.635 34.6099 263.549 36.3667C262.592 37.2089 261.837 38.2564 261.34 39.4313C260.842 40.6062 260.616 41.8783 260.677 43.1529C260.627 44.4428 260.858 45.7282 261.354 46.9197C261.85 48.1111 262.599 49.18 263.549 50.052C265.598 51.8734 268.282 52.8089 271.017 52.6545C272.357 52.7492 273.702 52.5671 274.969 52.1194C276.235 51.6717 277.397 50.968 278.381 50.052Z" fill="#0A4348"/>
<path d="M317.672 60.7967L309.056 49.2597L300.325 60.7967H291.592L304.689 43.9442L292.168 27.5435H300.898L309.171 38.4027L317.444 27.5435H325.945L313.307 43.8312L326.518 60.7967H317.672Z" fill="#0A4348"/>
<path d="M359.722 46.6596H333.297C333.49 47.8196 333.916 48.9283 334.549 49.9187C335.181 50.9092 336.008 51.7609 336.979 52.4223C339.126 53.9403 341.718 54.6964 344.343 54.5707C346.039 54.6142 347.726 54.3163 349.305 53.6947C350.884 53.073 352.322 52.1403 353.534 50.9517L357.784 55.7025C356.246 57.5298 354.265 58.9313 352.031 59.7732C349.535 60.7103 346.885 61.1708 344.219 61.1309C340.837 61.225 337.483 60.4874 334.452 58.9826C331.715 57.6387 329.436 55.5133 327.903 52.8741C326.367 50.1905 325.573 47.1456 325.602 44.0525C325.573 40.9952 326.368 37.9866 327.903 35.3439C329.369 32.7704 331.52 30.6555 334.116 29.2354C336.868 27.7572 339.955 27.0172 343.077 27.0871C346.163 27.017 349.212 27.7577 351.923 29.2354C354.476 30.618 356.587 32.6957 358.012 35.2287C359.524 37.958 360.278 41.0431 360.196 44.1632C359.862 44.9518 359.7 45.8031 359.722 46.6596ZM336.284 35.6874C334.543 37.2 333.4 39.2866 333.062 41.57H352.248C351.949 39.3005 350.849 37.2134 349.146 35.6874C347.343 34.1752 345.053 33.3715 342.702 33.4261C340.363 33.3963 338.089 34.1974 336.284 35.6874Z" fill="#0A4348"/>
<path d="M377.757 35.3449V37.8367H376.494V31.6129H378.678C379.287 31.5746 379.892 31.7365 380.401 32.074C380.605 32.2321 380.765 32.44 380.866 32.6777C380.966 32.9154 381.004 33.175 380.976 33.4317C380.969 33.7107 380.89 33.9831 380.746 34.2223C380.528 34.4723 380.252 34.666 379.943 34.7871C380.268 34.8771 380.551 35.0766 380.746 35.3518C380.89 35.6326 380.969 35.9423 380.976 36.2577V36.7187C380.959 36.9142 380.999 37.1105 381.092 37.2835C381.092 37.3728 381.113 37.4608 381.153 37.5407C381.193 37.6206 381.251 37.6903 381.322 37.7445V37.8367H380.058C379.987 37.7825 379.93 37.7128 379.89 37.6329C379.85 37.553 379.829 37.465 379.828 37.3757V36.3568C379.843 36.1095 379.76 35.8662 379.598 35.6791C379.507 35.5921 379.398 35.5263 379.279 35.4865C379.159 35.4466 379.033 35.4337 378.908 35.4486H377.757V35.3449ZM377.757 34.439H378.678C378.96 34.431 379.237 34.3517 379.481 34.2085C379.711 34.0955 379.711 33.8696 379.711 33.5308C379.725 33.2834 379.643 33.0401 379.481 32.8531C379.237 32.7098 378.96 32.6305 378.678 32.6226H377.757V34.439Z" fill="#0A4348"/>
<path d="M378.905 41.9084C377.503 41.8843 376.14 41.4459 374.986 40.6481C373.832 39.8504 372.939 38.7289 372.419 37.4245C371.899 36.1201 371.775 34.6909 372.064 33.3164C372.352 31.9419 373.039 30.6834 374.039 29.6989C375.039 28.7144 376.308 28.0478 377.685 27.7828C379.062 27.5178 380.486 27.6662 381.779 28.2094C383.072 28.7526 384.176 29.6664 384.952 30.836C385.729 32.0056 386.143 33.3789 386.142 34.7834C386.148 35.7311 385.963 36.6701 385.6 37.5451C385.236 38.42 384.701 39.2131 384.026 39.8774C383.352 40.5417 382.551 41.0637 381.671 41.4125C380.792 41.7614 379.851 41.93 378.905 41.9084ZM378.905 29.2304C378.184 29.2155 377.467 29.345 376.796 29.6112C376.126 29.8773 375.515 30.2749 374.999 30.7806C374.484 31.2862 374.075 31.8898 373.795 32.556C373.516 33.2221 373.372 33.9375 373.372 34.6601C373.372 35.3827 373.516 36.098 373.795 36.7642C374.075 37.4303 374.484 38.0339 374.999 38.5396C375.515 39.0452 376.126 39.4428 376.796 39.709C377.467 39.9752 378.184 40.1046 378.905 40.0897C380.351 40.0847 381.737 39.5143 382.768 38.5003C383.8 37.4863 384.396 36.1087 384.428 34.6612C384.43 33.9392 384.288 33.2241 384.01 32.558C383.732 31.8919 383.324 31.2883 382.809 30.783C382.294 30.2776 381.683 29.8807 381.013 29.6156C380.342 29.3505 379.626 29.2227 378.905 29.2396V29.2304Z" fill="#0A4348"/>
<defs>
<linearGradient id="paint0_linear" x1="41.6278" y1="86.5709" x2="41.6278" y2="3.70689" gradientUnits="userSpaceOnUse">
<stop stop-color="#107D82"/>
<stop offset="1" stop-color="#054248"/>
</linearGradient>
</defs>
</svg>
